<svg width="96" height="96" viewBox="0 0 96 96" fill="none" xmlns="http://www.w3.org/2000/svg">
  <defs>
    <linearGradient id="brand-bg" x1="16" y1="12" x2="82" y2="86" gradientUnits="userSpaceOnUse">
      <stop offset="0" stop-color="#22D3EE"/>
      <stop offset="0.46" stop-color="#3B82F6"/>
      <stop offset="1" stop-color="#7C3AED"/>
    </linearGradient>
    <linearGradient id="brand-core" x1="32" y1="28" x2="62" y2="68" gradientUnits="userSpaceOnUse">
      <stop offset="0" stop-color="#FFFFFF"/>
      <stop offset="1" stop-color="#DDEBFF"/>
    </linearGradient>
    <filter id="brand-shadow" x="0" y="0" width="96" height="96" filterUnits="userSpaceOnUse" color-interpolation-filters="sRGB">
      <feDropShadow dx="0" dy="8" stdDeviation="8" flood-color="#2563EB" flood-opacity="0.28"/>
    </filter>
  </defs>

  <rect x="8" y="8" width="80" height="80" rx="26" fill="url(#brand-bg)" filter="url(#brand-shadow)"/>
  <path d="M25 50C29.2 31 50.8 21.2 67 33" stroke="white" stroke-opacity="0.34" stroke-width="3" stroke-linecap="round"/>
  <path d="M71 46C66.8 65 45.2 74.8 29 63" stroke="white" stroke-opacity="0.34" stroke-width="3" stroke-linecap="round"/>

  <circle cx="48" cy="48" r="18" fill="url(#brand-core)" fill-opacity="0.96"/>
  <path d="M43.5 59L47 50.8H39L53.5 37L50 45.2H58L43.5 59Z" fill="#2563EB"/>

  <circle cx="24" cy="50" r="5.5" fill="#E0F2FE"/>
  <circle cx="24" cy="50" r="2.2" fill="#2563EB"/>
  <circle cx="68" cy="33" r="5.5" fill="#EEF2FF"/>
  <circle cx="68" cy="33" r="2.2" fill="#7C3AED"/>
  <circle cx="72" cy="46" r="5.5" fill="#E0F2FE"/>
  <circle cx="72" cy="46" r="2.2" fill="#0891B2"/>
  <circle cx="29" cy="63" r="5.5" fill="#EEF2FF"/>
  <circle cx="29" cy="63" r="2.2" fill="#4F46E5"/>
</svg>
